<?xml version="1.0" encoding="utf-8"?>
<!-- Generator: Adobe Illustrator 18.1.1, SVG Export Plug-In . SVG Version: 6.00 Build 0)  -->
<svg version="1.1" id="Layer_1" xmlns="http://www.w3.org/2000/svg" xmlns:xlink="http://www.w3.org/1999/xlink" x="0px" y="0px"
	 viewBox="0 0 80 80" enable-background="new 0 0 80 80" xml:space="preserve">
<path fill="#FFFFFF" d="M64.2,27.6H39.1c-1.1,0-2.3-0.4-3.2-1.1l-2-1.5c-0.8-0.6-1.7-0.9-2.7-0.9H15.8c-2.8,0-4.9,2.3-4.9,5.3v34.5
	c0,2.9,2.2,5.3,4.9,5.3h48.4c2.8,0,4.9-2.3,4.9-5.3v-31C69.2,29.9,67,27.6,64.2,27.6z"/>
<path fill="#FFFFFF" d="M31.2,20.4c1,0,1.9,0.3,2.7,0.9l2,1.5c1,0.7,2.1,1.1,3.2,1.1h25.1c0.4,0,0.8,0.1,1.2,0.2v-8.7
	c0-2.6-1.9-4.6-4.3-4.6H47.6c-0.8,0-1.6,0.2-2.3,0.8l-1.8,1.3c-0.8,0.6-1.9,1-2.8,1h-22c-2.3,0-4.3,2.1-4.3,4.6v2.2
	c0.5-0.2,1-0.2,1.5-0.2H31.2z"/>
</svg>
