<?xml version="1.0" encoding="utf-8"?>
<!-- Generator: Adobe Illustrator 18.1.1, SVG Export Plug-In . SVG Version: 6.00 Build 0)  -->
<svg version="1.1" id="Layer_1" xmlns="http://www.w3.org/2000/svg" xmlns:xlink="http://www.w3.org/1999/xlink" x="0px" y="0px"
	 viewBox="0 0 80 80" enable-background="new 0 0 80 80" xml:space="preserve">
<path d="M69.9,24.7h-31c-1.4,0-2.9-0.5-4-1.4l-2.5-1.8c-1-0.7-2.1-1.1-3.3-1.1h-19c-3.4,0-6.1,2.9-6.1,6.5v42.6
	c0,3.6,2.7,6.5,6.1,6.5h59.8c3.4,0,6.1-2.9,6.1-6.5V31.2C76,27.6,73.3,24.7,69.9,24.7z"/>
<path d="M29.1,15.8c1.2,0,2.3,0.4,3.3,1.1l2.5,1.8c1.2,0.9,2.6,1.4,4,1.4h31c0.5,0,1,0.1,1.5,0.2V9.6c0-3.2-2.4-5.7-5.3-5.7H49.4
	c-1,0-2,0.3-2.9,1l-2.2,1.6c-1,0.8-2.3,1.2-3.5,1.2H13.7c-2.9,0-5.3,2.6-5.3,5.7v2.7c0.6-0.2,1.2-0.3,1.8-0.3H29.1z"/>
</svg>
